<?xml version="1.0" standalone="no"?>
<!DOCTYPE svg PUBLIC "-//W3C//DTD SVG 20010904//EN"
 "http://www.w3.org/TR/2001/REC-SVG-20010904/DTD/svg10.dtd">
<svg version="1.0" xmlns="http://www.w3.org/2000/svg"
 width="852.000000pt" height="852.000000pt" viewBox="0 0 852.000000 852.000000"
 preserveAspectRatio="xMidYMid meet">
<metadata>
Created by potrace 1.11, written by Peter Selinger 2001-2013
</metadata>
<g transform="translate(0.000000,852.000000) scale(0.100000,-0.100000)"
fill="#000000" stroke="none">
<path d="M4189 8397 c-15 -12 -39 -44 -55 -72 -15 -27 -43 -69 -61 -92 -19
-24 -52 -73 -75 -110 -23 -38 -58 -88 -78 -113 -20 -25 -49 -67 -65 -95 -15
-27 -41 -65 -57 -83 -15 -18 -45 -65 -64 -105 -20 -40 -56 -97 -79 -127 -24
-30 -55 -80 -70 -109 -15 -30 -44 -78 -65 -105 -21 -28 -51 -78 -68 -112 -17
-33 -47 -80 -67 -104 -20 -24 -50 -71 -67 -104 -17 -34 -47 -83 -68 -111 -21
-27 -52 -77 -70 -110 -18 -33 -43 -74 -56 -91 -12 -17 -37 -60 -55 -95 -18
-35 -58 -99 -90 -142 -32 -43 -70 -99 -85 -125 -15 -26 -44 -74 -65 -107 -21
-33 -47 -82 -59 -110 -12 -27 -37 -72 -57 -99 -41 -57 -107 -196 -93 -196 5 0
55 11 112 25 140 34 220 42 236 23 6 -8 30 -58 52 -112 23 -54 84 -188 136
-298 52 -110 94 -210 92 -222 -3 -20 -7 -21 -104 -18 -161 6 -280 -28 -363
-104 -110 -98 -113 -235 -11 -393 21 -33 115 -156 207 -274 244 -309 296 -424
296 -662 0 -132 -14 -207 -63 -333 -121 -313 -479 -595 -893 -702 -61 -16
-134 -32 -160 -36 -44 -6 -51 -4 -78 22 -66 63 -282 438 -329 571 -28 79 -23
86 78 108 117 26 298 83 354 111 165 84 245 260 189 417 -29 85 -69 142 -231
332 -80 94 -157 185 -171 204 l-26 33 -28 -47 c-15 -26 -38 -63 -50 -81 -12
-18 -33 -71 -45 -116 -12 -46 -40 -118 -61 -161 -22 -43 -52 -129 -69 -190
-16 -61 -47 -145 -68 -187 -22 -41 -51 -122 -66 -180 -15 -58 -39 -140 -52
-184 -36 -115 -42 -148 -49 -281 -4 -82 -16 -160 -37 -245 -29 -118 -30 -132
-24 -260 21 -451 30 -517 96 -661 22 -47 47 -117 56 -155 23 -101 43 -153 81
-208 l33 -48 0 53 c0 195 75 437 189 609 96 145 283 299 437 358 142 54 221
67 404 66 146 -1 177 -4 265 -27 123 -33 259 -100 345 -170 84 -69 160 -162
160 -198 0 -51 -202 -316 -272 -357 -27 -16 -28 -15 -85 39 -117 111 -225 164
-358 175 -237 20 -428 -123 -492 -369 -21 -82 -21 -252 0 -334 80 -305 353
-422 717 -308 95 31 89 4 60 270 -24 217 -25 269 -6 284 11 9 44 9 138 1 72
-6 192 -8 290 -4 l167 7 7 -27 c3 -15 2 -125 -4 -245 -7 -150 -8 -280 -1 -417
6 -109 11 -246 12 -304 l2 -105 -55 2 c-30 1 -110 18 -178 36 l-123 34 -106
-34 c-156 -50 -281 -73 -440 -81 l-143 -7 51 -41 c29 -23 84 -54 123 -69 39
-15 99 -45 133 -67 35 -22 109 -57 165 -78 57 -20 135 -53 173 -72 93 -47 123
-56 232 -68 118 -13 203 -44 203 -74 0 -46 1 -46 440 -46 463 0 508 4 720 66
131 38 169 46 287 62 53 7 104 25 190 65 65 30 142 62 171 72 29 9 80 37 115
61 76 54 106 69 179 89 31 9 71 27 90 40 18 14 62 44 98 68 102 69 101 57 15
198 -41 68 -78 138 -81 155 l-6 32 123 22 c198 35 269 81 269 174 0 59 -33
116 -129 224 -119 132 -148 174 -171 250 -24 77 -25 157 -5 237 52 201 293
389 563 441 119 23 156 19 186 -17 56 -67 196 -322 196 -358 0 -30 -16 -35
-115 -36 -80 0 -96 -4 -145 -30 -62 -34 -91 -76 -92 -133 -1 -54 18 -84 119
-195 l88 -98 22 28 c13 15 34 57 49 93 14 36 41 88 59 116 19 28 43 82 55 120
11 38 34 110 51 159 28 84 59 192 88 310 7 28 15 85 18 128 l6 77 -165 0
c-114 0 -168 4 -176 12 -7 7 -12 31 -12 54 0 51 -11 61 -36 33 -76 -84 -254
-121 -399 -84 -250 65 -394 348 -330 650 52 247 241 397 480 382 92 -5 148
-28 208 -85 20 -20 38 -32 39 -27 2 6 3 127 3 270 l0 260 62 9 c71 10 68 1 34
114 l-16 54 -45 -35 c-174 -132 -369 -152 -590 -58 -54 23 -70 26 -74 16 -3
-8 -1 -100 4 -206 5 -122 5 -200 -1 -211 -9 -16 -27 -18 -198 -18 -165 0 -191
2 -210 18 -20 17 -20 24 -24 652 -4 530 -7 649 -20 720 -22 112 -22 109 16
125 38 16 276 55 335 55 45 0 72 -25 72 -66 0 -50 9 -55 49 -30 20 13 71 41
112 61 40 21 76 39 78 41 2 2 -3 14 -11 26 -8 13 -24 49 -36 80 -12 31 -39 92
-61 135 -21 43 -47 96 -55 118 -9 21 -35 63 -56 92 -22 29 -56 87 -75 129 -19
42 -50 97 -69 123 -19 26 -50 80 -69 122 -18 41 -50 97 -69 124 -20 28 -48 76
-61 107 -14 32 -39 77 -55 100 -16 24 -44 74 -61 112 -19 43 -52 91 -85 125
-29 31 -69 89 -90 129 -20 41 -47 88 -60 105 -13 18 -38 59 -56 92 -18 33 -49
83 -70 110 -21 28 -51 77 -68 111 -17 33 -47 80 -67 104 -20 24 -50 71 -67
104 -17 34 -47 84 -68 112 -21 27 -50 75 -65 105 -15 29 -46 79 -70 109 -23
30 -59 87 -79 127 -19 40 -49 87 -64 105 -16 18 -42 56 -57 83 -16 28 -45 70
-65 95 -20 25 -55 75 -78 113 -23 37 -56 86 -75 110 -19 23 -48 67 -66 98 -17
31 -42 64 -56 73 -37 24 -114 21 -146 -7z m-740 -2891 c31 -8 110 -22 176 -31
66 -9 124 -19 129 -22 4 -3 5 -81 1 -177 -6 -150 -5 -174 9 -185 11 -10 51
-12 158 -9 l143 3 -4 -180 c-2 -99 -5 -183 -8 -187 -2 -5 -69 -8 -148 -8
l-145 0 -6 -26 c-13 -51 2 -297 20 -331 31 -60 95 -74 222 -48 103 22 108 19
98 -70 -4 -33 -9 -94 -13 -135 -6 -70 -8 -75 -39 -97 -19 -12 -59 -32 -90 -44
-218 -81 -473 -59 -565 51 -53 62 -58 107 -51 411 7 274 7 277 -14 288 -11 6
-39 11 -61 11 -22 0 -43 5 -47 12 -4 6 -8 76 -8 156 -1 160 0 162 66 162 19 0
39 5 46 12 9 9 12 69 12 209 0 109 4 209 10 223 11 30 28 32 109 12z m1529
-372 c153 -31 276 -113 361 -239 77 -116 96 -187 96 -365 0 -127 -3 -154 -24
-219 -66 -199 -227 -343 -433 -385 -451 -93 -809 225 -758 673 19 170 67 277
171 383 139 142 359 199 587 152z m-877 -1701 c26 -11 65 -37 88 -58 l41 -37
9 23 c5 13 10 33 12 43 8 38 31 41 146 18 59 -12 125 -27 147 -33 l39 -11 -7
-56 c-26 -237 -28 -282 -22 -477 3 -115 9 -248 12 -295 9 -123 13 -120 -178
-127 l-157 -6 -10 24 c-5 13 -12 41 -16 61 l-6 38 -65 -50 c-83 -64 -151 -85
-251 -77 -188 14 -355 170 -404 377 -16 68 -16 220 1 291 46 197 187 336 380
373 60 11 195 -1 241 -21z m1062 -50 c5 -35 13 -63 18 -63 5 0 30 13 57 29 26
17 79 45 117 63 64 30 78 33 165 33 112 -1 175 -23 233 -83 72 -74 72 -71 75
-517 3 -371 2 -400 -14 -412 -26 -19 -313 -18 -340 1 -18 14 -19 27 -16 288 1
151 -2 290 -7 312 -27 110 -158 125 -247 29 l-24 -26 0 -296 c0 -218 -3 -300
-12 -309 -15 -15 -294 -17 -331 -3 l-25 10 -5 398 c-3 328 -7 411 -21 472 -10
40 -14 77 -9 82 5 5 60 15 123 24 63 8 135 19 160 24 87 18 94 14 103 -56z
m-394 -1208 c84 -20 170 -67 234 -127 56 -52 60 -51 77 17 21 82 29 90 96 88
62 -1 334 -54 400 -77 46 -16 46 -17 21 -206 -27 -200 -37 -452 -27 -665 6
-104 13 -285 17 -400 5 -187 4 -212 -10 -227 -18 -18 -98 -25 -355 -31 -100
-3 -157 0 -167 7 -8 6 -22 47 -30 90 -9 44 -17 82 -20 84 -3 3 -27 -16 -54
-41 -63 -59 -149 -114 -220 -141 -46 -17 -78 -20 -176 -20 -105 0 -130 4 -200
28 -136 47 -233 116 -326 234 -70 87 -131 209 -161 317 -28 105 -31 359 -5
473 75 327 300 550 607 601 87 14 229 12 299 -4z"/>
<path d="M4767 4760 c-48 -15 -96 -59 -124 -113 -56 -111 -23 -253 75 -322 38
-26 52 -30 112 -30 60 0 74 4 111 30 172 121 109 425 -92 440 -29 3 -67 0 -82
-5z"/>
<path d="M3942 3137 c-42 -16 -91 -63 -108 -104 -20 -47 -18 -137 5 -181 62
-121 215 -149 312 -57 42 39 59 82 59 150 0 68 -17 111 -59 150 -37 36 -82 53
-136 53 -22 0 -55 -5 -73 -11z"/>
<path d="M4618 1677 c-248 -71 -295 -427 -75 -571 97 -65 218 -72 324 -20 219
107 218 462 -1 569 -66 32 -177 42 -248 22z"/>
<path d="M6240 4754 c-46 -20 -77 -50 -103 -99 -18 -32 -22 -57 -22 -130 0
-97 17 -146 67 -192 74 -69 205 -70 283 -1 67 58 86 219 37 313 -53 104 -165
151 -262 109z"/>
<path d="M6470 3138 c-35 -18 -51 -35 -73 -78 -25 -48 -28 -64 -25 -126 3 -58
8 -78 32 -112 32 -47 95 -82 147 -82 52 0 119 39 154 88 27 40 30 51 30 122 0
71 -3 82 -30 122 -35 50 -102 88 -155 88 -20 0 -56 -10 -80 -22z"/>
<path d="M7112 2760 c0 -69 3 -154 7 -190 l7 -65 8 69 c10 81 3 251 -12 286
-8 19 -11 -4 -10 -100z"/>
</g>
</svg>
